<mxfile host="app.diagrams.net" modified="2024-07-09T12:22:09.971Z" agent="Mozilla/5.0 (Windows NT 10.0; Win64; x64) AppleWebKit/537.36 (KHTML, like Gecko) Chrome/126.0.0.0 Safari/537.36" etag="ylyh_vF8DgpO_4xyeHzG" version="24.6.4" type="device">
  <diagram name="Page-1" id="e56a1550-8fbb-45ad-956c-1786394a9013">
    <mxGraphModel dx="1134" dy="714" grid="1" gridSize="10" guides="1" tooltips="1" connect="1" arrows="1" fold="1" page="1" pageScale="1" pageWidth="1100" pageHeight="850" background="none" math="0" shadow="0">
      <root>
        <mxCell id="0" />
        <mxCell id="1" parent="0" />
        <mxCell id="psU1kPeBrboTVq0_jrhc-1" value="School" style="whiteSpace=wrap;html=1;align=center;" parent="1" vertex="1">
          <mxGeometry x="320" y="80" width="100" height="40" as="geometry" />
        </mxCell>
        <mxCell id="psU1kPeBrboTVq0_jrhc-11" style="edgeStyle=orthogonalEdgeStyle;rounded=0;orthogonalLoop=1;jettySize=auto;html=1;exitX=1;exitY=0;exitDx=0;exitDy=0;entryX=0;entryY=0.5;entryDx=0;entryDy=0;endArrow=none;endFill=0;" parent="1" source="psU1kPeBrboTVq0_jrhc-2" edge="1">
          <mxGeometry relative="1" as="geometry">
            <mxPoint x="480" y="190" as="targetPoint" />
          </mxGeometry>
        </mxCell>
        <mxCell id="psU1kPeBrboTVq0_jrhc-12" style="edgeStyle=orthogonalEdgeStyle;rounded=0;orthogonalLoop=1;jettySize=auto;html=1;exitX=1;exitY=0.5;exitDx=0;exitDy=0;entryX=0;entryY=0.5;entryDx=0;entryDy=0;endArrow=none;endFill=0;" parent="1" source="psU1kPeBrboTVq0_jrhc-2" edge="1">
          <mxGeometry relative="1" as="geometry">
            <mxPoint x="480" y="250" as="targetPoint" />
          </mxGeometry>
        </mxCell>
        <mxCell id="psU1kPeBrboTVq0_jrhc-16" style="edgeStyle=orthogonalEdgeStyle;rounded=0;orthogonalLoop=1;jettySize=auto;html=1;exitX=0.5;exitY=1;exitDx=0;exitDy=0;entryX=0.5;entryY=0;entryDx=0;entryDy=0;endArrow=none;endFill=0;startArrow=ERoneToMany;startFill=0;" parent="1" source="psU1kPeBrboTVq0_jrhc-2" target="psU1kPeBrboTVq0_jrhc-15" edge="1">
          <mxGeometry relative="1" as="geometry" />
        </mxCell>
        <mxCell id="psU1kPeBrboTVq0_jrhc-2" value="Faculties" style="whiteSpace=wrap;html=1;align=center;" parent="1" vertex="1">
          <mxGeometry x="320" y="240" width="100" height="40" as="geometry" />
        </mxCell>
        <mxCell id="psU1kPeBrboTVq0_jrhc-7" style="edgeStyle=orthogonalEdgeStyle;rounded=0;orthogonalLoop=1;jettySize=auto;html=1;exitX=0.5;exitY=1;exitDx=0;exitDy=0;entryX=0.5;entryY=0;entryDx=0;entryDy=0;endArrow=ERoneToMany;endFill=0;" parent="1" source="psU1kPeBrboTVq0_jrhc-3" target="psU1kPeBrboTVq0_jrhc-2" edge="1">
          <mxGeometry relative="1" as="geometry" />
        </mxCell>
        <mxCell id="psU1kPeBrboTVq0_jrhc-3" value="Relationship" style="shape=rhombus;perimeter=rhombusPerimeter;whiteSpace=wrap;html=1;align=center;" parent="1" vertex="1">
          <mxGeometry x="320" y="150" width="100" height="50" as="geometry" />
        </mxCell>
        <mxCell id="psU1kPeBrboTVq0_jrhc-4" style="edgeStyle=orthogonalEdgeStyle;rounded=0;orthogonalLoop=1;jettySize=auto;html=1;exitX=0.5;exitY=1;exitDx=0;exitDy=0;entryX=0.422;entryY=0.056;entryDx=0;entryDy=0;entryPerimeter=0;endArrow=none;endFill=0;" parent="1" source="psU1kPeBrboTVq0_jrhc-1" target="psU1kPeBrboTVq0_jrhc-3" edge="1">
          <mxGeometry relative="1" as="geometry">
            <Array as="points">
              <mxPoint x="370" y="153" />
            </Array>
          </mxGeometry>
        </mxCell>
        <mxCell id="psU1kPeBrboTVq0_jrhc-17" style="edgeStyle=orthogonalEdgeStyle;rounded=0;orthogonalLoop=1;jettySize=auto;html=1;entryX=0.5;entryY=1;entryDx=0;entryDy=0;endArrow=none;endFill=0;startArrow=ERoneToMany;startFill=0;" parent="1" source="psU1kPeBrboTVq0_jrhc-14" target="psU1kPeBrboTVq0_jrhc-15" edge="1">
          <mxGeometry relative="1" as="geometry">
            <Array as="points">
              <mxPoint x="370" y="390" />
              <mxPoint x="370" y="390" />
            </Array>
          </mxGeometry>
        </mxCell>
        <mxCell id="psU1kPeBrboTVq0_jrhc-19" style="edgeStyle=orthogonalEdgeStyle;rounded=0;orthogonalLoop=1;jettySize=auto;html=1;exitX=0.75;exitY=0;exitDx=0;exitDy=0;entryX=0;entryY=0.5;entryDx=0;entryDy=0;endArrow=none;endFill=0;" parent="1" source="psU1kPeBrboTVq0_jrhc-14" edge="1">
          <mxGeometry relative="1" as="geometry">
            <mxPoint x="470" y="370" as="targetPoint" />
          </mxGeometry>
        </mxCell>
        <mxCell id="psU1kPeBrboTVq0_jrhc-21" style="edgeStyle=orthogonalEdgeStyle;rounded=0;orthogonalLoop=1;jettySize=auto;html=1;exitX=1;exitY=0.5;exitDx=0;exitDy=0;entryX=0;entryY=0.25;entryDx=0;entryDy=0;endArrow=none;endFill=0;" parent="1" source="psU1kPeBrboTVq0_jrhc-14" edge="1">
          <mxGeometry relative="1" as="geometry">
            <mxPoint x="470" y="415" as="targetPoint" />
          </mxGeometry>
        </mxCell>
        <mxCell id="psU1kPeBrboTVq0_jrhc-23" style="edgeStyle=orthogonalEdgeStyle;rounded=0;orthogonalLoop=1;jettySize=auto;html=1;exitX=0.25;exitY=0;exitDx=0;exitDy=0;entryX=1;entryY=0.25;entryDx=0;entryDy=0;endArrow=none;endFill=0;" parent="1" source="psU1kPeBrboTVq0_jrhc-14" edge="1">
          <mxGeometry relative="1" as="geometry">
            <mxPoint x="250" y="370" as="targetPoint" />
          </mxGeometry>
        </mxCell>
        <mxCell id="psU1kPeBrboTVq0_jrhc-25" style="edgeStyle=orthogonalEdgeStyle;rounded=0;orthogonalLoop=1;jettySize=auto;html=1;exitX=0.5;exitY=1;exitDx=0;exitDy=0;entryX=0.5;entryY=0;entryDx=0;entryDy=0;endArrow=none;endFill=0;" parent="1" source="psU1kPeBrboTVq0_jrhc-14" target="psU1kPeBrboTVq0_jrhc-24" edge="1">
          <mxGeometry relative="1" as="geometry" />
        </mxCell>
        <mxCell id="psU1kPeBrboTVq0_jrhc-14" value="Classes" style="whiteSpace=wrap;html=1;align=center;" parent="1" vertex="1">
          <mxGeometry x="320" y="400" width="100" height="40" as="geometry" />
        </mxCell>
        <mxCell id="psU1kPeBrboTVq0_jrhc-15" value="Have" style="shape=rhombus;perimeter=rhombusPerimeter;whiteSpace=wrap;html=1;align=center;" parent="1" vertex="1">
          <mxGeometry x="310" y="310" width="120" height="60" as="geometry" />
        </mxCell>
        <mxCell id="psU1kPeBrboTVq0_jrhc-27" style="edgeStyle=orthogonalEdgeStyle;rounded=0;orthogonalLoop=1;jettySize=auto;html=1;exitX=0.5;exitY=1;exitDx=0;exitDy=0;entryX=0.5;entryY=0;entryDx=0;entryDy=0;endArrow=ERoneToMany;endFill=0;" parent="1" source="psU1kPeBrboTVq0_jrhc-24" target="psU1kPeBrboTVq0_jrhc-26" edge="1">
          <mxGeometry relative="1" as="geometry" />
        </mxCell>
        <mxCell id="psU1kPeBrboTVq0_jrhc-24" value="Have" style="shape=rhombus;perimeter=rhombusPerimeter;whiteSpace=wrap;html=1;align=center;" parent="1" vertex="1">
          <mxGeometry x="310" y="480" width="120" height="80" as="geometry" />
        </mxCell>
        <mxCell id="psU1kPeBrboTVq0_jrhc-38" style="edgeStyle=orthogonalEdgeStyle;rounded=0;orthogonalLoop=1;jettySize=auto;html=1;exitX=1;exitY=0.5;exitDx=0;exitDy=0;entryX=0;entryY=0.75;entryDx=0;entryDy=0;endArrow=none;endFill=0;" parent="1" source="psU1kPeBrboTVq0_jrhc-26" edge="1">
          <mxGeometry relative="1" as="geometry">
            <mxPoint x="510" y="620" as="targetPoint" />
          </mxGeometry>
        </mxCell>
        <mxCell id="psU1kPeBrboTVq0_jrhc-39" style="edgeStyle=orthogonalEdgeStyle;rounded=0;orthogonalLoop=1;jettySize=auto;html=1;exitX=0.5;exitY=1;exitDx=0;exitDy=0;endArrow=none;endFill=0;startArrow=ERoneToMany;startFill=0;" parent="1" source="psU1kPeBrboTVq0_jrhc-26" edge="1">
          <mxGeometry relative="1" as="geometry">
            <mxPoint x="660" y="120" as="targetPoint" />
          </mxGeometry>
        </mxCell>
        <mxCell id="psU1kPeBrboTVq0_jrhc-56" style="edgeStyle=orthogonalEdgeStyle;rounded=0;orthogonalLoop=1;jettySize=auto;html=1;exitX=0;exitY=1;exitDx=0;exitDy=0;entryX=0;entryY=0.5;entryDx=0;entryDy=0;endArrow=none;endFill=0;startArrow=ERmandOne;startFill=0;" parent="1" source="psU1kPeBrboTVq0_jrhc-26" target="psU1kPeBrboTVq0_jrhc-54" edge="1">
          <mxGeometry relative="1" as="geometry" />
        </mxCell>
        <mxCell id="psU1kPeBrboTVq0_jrhc-26" value="Students" style="whiteSpace=wrap;html=1;align=center;" parent="1" vertex="1">
          <mxGeometry x="320" y="600" width="100" height="40" as="geometry" />
        </mxCell>
        <mxCell id="psU1kPeBrboTVq0_jrhc-34" style="edgeStyle=orthogonalEdgeStyle;rounded=0;orthogonalLoop=1;jettySize=auto;html=1;exitX=1;exitY=0.5;exitDx=0;exitDy=0;entryX=0.25;entryY=0;entryDx=0;entryDy=0;endArrow=none;endFill=0;" parent="1" target="psU1kPeBrboTVq0_jrhc-26" edge="1">
          <mxGeometry relative="1" as="geometry">
            <mxPoint x="240" y="550" as="sourcePoint" />
          </mxGeometry>
        </mxCell>
        <mxCell id="psU1kPeBrboTVq0_jrhc-35" style="edgeStyle=orthogonalEdgeStyle;rounded=0;orthogonalLoop=1;jettySize=auto;html=1;exitX=1;exitY=0.5;exitDx=0;exitDy=0;entryX=0;entryY=0.25;entryDx=0;entryDy=0;endArrow=none;endFill=0;" parent="1" target="psU1kPeBrboTVq0_jrhc-26" edge="1">
          <mxGeometry relative="1" as="geometry">
            <mxPoint x="240" y="610" as="sourcePoint" />
          </mxGeometry>
        </mxCell>
        <mxCell id="psU1kPeBrboTVq0_jrhc-36" style="edgeStyle=orthogonalEdgeStyle;rounded=0;orthogonalLoop=1;jettySize=auto;html=1;exitX=1;exitY=0.5;exitDx=0;exitDy=0;entryX=0;entryY=0.5;entryDx=0;entryDy=0;endArrow=none;endFill=0;" parent="1" target="psU1kPeBrboTVq0_jrhc-26" edge="1">
          <mxGeometry relative="1" as="geometry">
            <mxPoint x="240" y="670" as="sourcePoint" />
          </mxGeometry>
        </mxCell>
        <mxCell id="psU1kPeBrboTVq0_jrhc-37" style="edgeStyle=orthogonalEdgeStyle;rounded=0;orthogonalLoop=1;jettySize=auto;html=1;exitX=0;exitY=0.5;exitDx=0;exitDy=0;entryX=0.887;entryY=0.025;entryDx=0;entryDy=0;entryPerimeter=0;endArrow=none;endFill=0;" parent="1" target="psU1kPeBrboTVq0_jrhc-26" edge="1">
          <mxGeometry relative="1" as="geometry">
            <mxPoint x="510" y="550" as="sourcePoint" />
          </mxGeometry>
        </mxCell>
        <mxCell id="psU1kPeBrboTVq0_jrhc-42" style="edgeStyle=orthogonalEdgeStyle;rounded=0;orthogonalLoop=1;jettySize=auto;html=1;exitX=0.5;exitY=1;exitDx=0;exitDy=0;entryX=0;entryY=0.5;entryDx=0;entryDy=0;endArrow=ERoneToMany;endFill=0;" parent="1" source="psU1kPeBrboTVq0_jrhc-40" target="psU1kPeBrboTVq0_jrhc-41" edge="1">
          <mxGeometry relative="1" as="geometry" />
        </mxCell>
        <mxCell id="psU1kPeBrboTVq0_jrhc-44" style="edgeStyle=orthogonalEdgeStyle;rounded=0;orthogonalLoop=1;jettySize=auto;html=1;entryX=0;entryY=0.5;entryDx=0;entryDy=0;endArrow=none;endFill=0;" parent="1" source="psU1kPeBrboTVq0_jrhc-40" edge="1">
          <mxGeometry relative="1" as="geometry">
            <mxPoint x="870" y="130" as="targetPoint" />
          </mxGeometry>
        </mxCell>
        <mxCell id="psU1kPeBrboTVq0_jrhc-40" value="Study" style="shape=rhombus;perimeter=rhombusPerimeter;whiteSpace=wrap;html=1;align=center;" parent="1" vertex="1">
          <mxGeometry x="660" y="90" width="150" height="70" as="geometry" />
        </mxCell>
        <mxCell id="psU1kPeBrboTVq0_jrhc-51" style="edgeStyle=orthogonalEdgeStyle;rounded=0;orthogonalLoop=1;jettySize=auto;html=1;exitX=1;exitY=0.5;exitDx=0;exitDy=0;entryX=0;entryY=0.5;entryDx=0;entryDy=0;endArrow=none;endFill=0;" parent="1" source="psU1kPeBrboTVq0_jrhc-41" edge="1">
          <mxGeometry relative="1" as="geometry">
            <mxPoint x="970" y="250" as="targetPoint" />
          </mxGeometry>
        </mxCell>
        <mxCell id="psU1kPeBrboTVq0_jrhc-41" value="Subjects" style="whiteSpace=wrap;html=1;align=center;" parent="1" vertex="1">
          <mxGeometry x="800" y="210" width="100" height="40" as="geometry" />
        </mxCell>
        <mxCell id="psU1kPeBrboTVq0_jrhc-45" value="Exam" style="shape=ext;margin=3;double=1;whiteSpace=wrap;html=1;align=center;" parent="1" vertex="1">
          <mxGeometry x="870" y="110" width="100" height="40" as="geometry" />
        </mxCell>
        <mxCell id="psU1kPeBrboTVq0_jrhc-47" style="edgeStyle=orthogonalEdgeStyle;rounded=0;orthogonalLoop=1;jettySize=auto;html=1;exitX=0;exitY=0.5;exitDx=0;exitDy=0;entryX=0.5;entryY=0;entryDx=0;entryDy=0;endArrow=none;endFill=0;" parent="1" target="psU1kPeBrboTVq0_jrhc-45" edge="1">
          <mxGeometry relative="1" as="geometry">
            <mxPoint x="1010" y="90" as="sourcePoint" />
          </mxGeometry>
        </mxCell>
        <mxCell id="psU1kPeBrboTVq0_jrhc-49" style="edgeStyle=orthogonalEdgeStyle;rounded=0;orthogonalLoop=1;jettySize=auto;html=1;exitX=0;exitY=0.5;exitDx=0;exitDy=0;entryX=0.5;entryY=0;entryDx=0;entryDy=0;endArrow=none;endFill=0;" parent="1" target="psU1kPeBrboTVq0_jrhc-41" edge="1">
          <mxGeometry relative="1" as="geometry">
            <mxPoint x="970" y="200" as="sourcePoint" />
          </mxGeometry>
        </mxCell>
        <mxCell id="psU1kPeBrboTVq0_jrhc-53" style="edgeStyle=orthogonalEdgeStyle;rounded=0;orthogonalLoop=1;jettySize=auto;html=1;exitX=0;exitY=0.5;exitDx=0;exitDy=0;entryX=0.908;entryY=1.019;entryDx=0;entryDy=0;entryPerimeter=0;endArrow=none;endFill=0;" parent="1" target="psU1kPeBrboTVq0_jrhc-41" edge="1">
          <mxGeometry relative="1" as="geometry">
            <mxPoint x="970" y="300" as="sourcePoint" />
          </mxGeometry>
        </mxCell>
        <mxCell id="psU1kPeBrboTVq0_jrhc-58" style="edgeStyle=orthogonalEdgeStyle;rounded=0;orthogonalLoop=1;jettySize=auto;html=1;exitX=1;exitY=0.5;exitDx=0;exitDy=0;entryX=0;entryY=0.25;entryDx=0;entryDy=0;endArrow=ERmandOne;endFill=0;" parent="1" source="psU1kPeBrboTVq0_jrhc-54" target="psU1kPeBrboTVq0_jrhc-57" edge="1">
          <mxGeometry relative="1" as="geometry" />
        </mxCell>
        <mxCell id="psU1kPeBrboTVq0_jrhc-54" value="Own" style="shape=rhombus;perimeter=rhombusPerimeter;whiteSpace=wrap;html=1;align=center;" parent="1" vertex="1">
          <mxGeometry x="330" y="700" width="100" height="50" as="geometry" />
        </mxCell>
        <mxCell id="psU1kPeBrboTVq0_jrhc-57" value="Library Card" style="whiteSpace=wrap;html=1;align=center;" parent="1" vertex="1">
          <mxGeometry x="480" y="710" width="100" height="40" as="geometry" />
        </mxCell>
        <mxCell id="psU1kPeBrboTVq0_jrhc-59" value="Code" style="ellipse;whiteSpace=wrap;html=1;align=center;" parent="1" vertex="1">
          <mxGeometry x="440" y="155" width="100" height="40" as="geometry" />
        </mxCell>
        <mxCell id="psU1kPeBrboTVq0_jrhc-60" value="Name" style="ellipse;whiteSpace=wrap;html=1;align=center;" parent="1" vertex="1">
          <mxGeometry x="470" y="230" width="100" height="40" as="geometry" />
        </mxCell>
        <mxCell id="psU1kPeBrboTVq0_jrhc-61" value="Code" style="ellipse;whiteSpace=wrap;html=1;align=center;" parent="1" vertex="1">
          <mxGeometry x="440" y="330" width="100" height="40" as="geometry" />
        </mxCell>
        <mxCell id="psU1kPeBrboTVq0_jrhc-62" value="Name" style="ellipse;whiteSpace=wrap;html=1;align=center;" parent="1" vertex="1">
          <mxGeometry x="460" y="390" width="100" height="40" as="geometry" />
        </mxCell>
        <mxCell id="psU1kPeBrboTVq0_jrhc-63" value="Wholesale number" style="ellipse;whiteSpace=wrap;html=1;align=center;" parent="1" vertex="1">
          <mxGeometry x="160" y="320" width="130" height="50" as="geometry" />
        </mxCell>
        <mxCell id="psU1kPeBrboTVq0_jrhc-64" value="Student_ID" style="ellipse;whiteSpace=wrap;html=1;align=center;" parent="1" vertex="1">
          <mxGeometry x="500" y="530" width="100" height="40" as="geometry" />
        </mxCell>
        <mxCell id="psU1kPeBrboTVq0_jrhc-65" value="Student_Name" style="ellipse;whiteSpace=wrap;html=1;align=center;" parent="1" vertex="1">
          <mxGeometry x="500" y="600" width="100" height="40" as="geometry" />
        </mxCell>
        <mxCell id="psU1kPeBrboTVq0_jrhc-66" value="Date of birth" style="ellipse;whiteSpace=wrap;html=1;align=center;" parent="1" vertex="1">
          <mxGeometry x="150" y="530" width="100" height="40" as="geometry" />
        </mxCell>
        <mxCell id="psU1kPeBrboTVq0_jrhc-67" value="Gender" style="ellipse;whiteSpace=wrap;html=1;align=center;" parent="1" vertex="1">
          <mxGeometry x="150" y="590" width="100" height="40" as="geometry" />
        </mxCell>
        <mxCell id="psU1kPeBrboTVq0_jrhc-68" value="Address" style="ellipse;whiteSpace=wrap;html=1;align=center;" parent="1" vertex="1">
          <mxGeometry x="150" y="650" width="100" height="40" as="geometry" />
        </mxCell>
        <mxCell id="psU1kPeBrboTVq0_jrhc-70" value="Exam Code" style="ellipse;whiteSpace=wrap;html=1;align=center;" parent="1" vertex="1">
          <mxGeometry x="990" y="70" width="100" height="40" as="geometry" />
        </mxCell>
        <mxCell id="psU1kPeBrboTVq0_jrhc-71" value="Subject Code" style="ellipse;whiteSpace=wrap;html=1;align=center;" parent="1" vertex="1">
          <mxGeometry x="960" y="170" width="100" height="40" as="geometry" />
        </mxCell>
        <mxCell id="psU1kPeBrboTVq0_jrhc-72" value="Subject Name" style="ellipse;whiteSpace=wrap;html=1;align=center;" parent="1" vertex="1">
          <mxGeometry x="960" y="230" width="100" height="40" as="geometry" />
        </mxCell>
        <mxCell id="psU1kPeBrboTVq0_jrhc-73" value="Number of Credits" style="ellipse;whiteSpace=wrap;html=1;align=center;" parent="1" vertex="1">
          <mxGeometry x="960" y="280" width="120" height="50" as="geometry" />
        </mxCell>
      </root>
    </mxGraphModel>
  </diagram>
</mxfile>
